<svg width="68" height="152" viewBox="0 0 68 152" fill="none" xmlns="http://www.w3.org/2000/svg">
<g opacity="0.2">
<path d="M65.5 -1.09278e-07C66.8807 -4.89256e-08 68 1.11929 68 2.5C68 3.88071 66.8807 5 65.5 5C64.1193 5 63 3.88071 63 2.5C63 1.11929 64.1193 -1.69631e-07 65.5 -1.09278e-07Z" fill="white"/>
<path d="M65.5 21C66.8807 21 68 22.1193 68 23.5C68 24.8807 66.8807 26 65.5 26C64.1193 26 63 24.8807 63 23.5C63 22.1193 64.1193 21 65.5 21Z" fill="white"/>
<path d="M65.5 42C66.8807 42 68 43.1193 68 44.5C68 45.8807 66.8807 47 65.5 47C64.1193 47 63 45.8807 63 44.5C63 43.1193 64.1193 42 65.5 42Z" fill="white"/>
<path d="M65.5 63C66.8807 63 68 64.1193 68 65.5C68 66.8807 66.8807 68 65.5 68C64.1193 68 63 66.8807 63 65.5C63 64.1193 64.1193 63 65.5 63Z" fill="white"/>
<path d="M65.5 84C66.8807 84 68 85.1193 68 86.5C68 87.8807 66.8807 89 65.5 89C64.1193 89 63 87.8807 63 86.5C63 85.1193 64.1193 84 65.5 84Z" fill="white"/>
<path d="M65.5 105C66.8807 105 68 106.119 68 107.5C68 108.881 66.8807 110 65.5 110C64.1193 110 63 108.881 63 107.5C63 106.119 64.1193 105 65.5 105Z" fill="white"/>
<path d="M65.5 126C66.8807 126 68 127.119 68 128.5C68 129.881 66.8807 131 65.5 131C64.1193 131 63 129.881 63 128.5C63 127.119 64.1193 126 65.5 126Z" fill="white"/>
<path d="M65.5 147C66.8807 147 68 148.119 68 149.5C68 150.881 66.8807 152 65.5 152C64.1193 152 63 150.881 63 149.5C63 148.119 64.1193 147 65.5 147Z" fill="white"/>
<path d="M44.5 -1.09278e-07C45.8807 -4.89256e-08 47 1.11929 47 2.5C47 3.88071 45.8807 5 44.5 5C43.1193 5 42 3.88071 42 2.5C42 1.11929 43.1193 -1.69631e-07 44.5 -1.09278e-07Z" fill="white"/>
<path d="M44.5 21C45.8807 21 47 22.1193 47 23.5C47 24.8807 45.8807 26 44.5 26C43.1193 26 42 24.8807 42 23.5C42 22.1193 43.1193 21 44.5 21Z" fill="white"/>
<path d="M44.5 42C45.8807 42 47 43.1193 47 44.5C47 45.8807 45.8807 47 44.5 47C43.1193 47 42 45.8807 42 44.5C42 43.1193 43.1193 42 44.5 42Z" fill="white"/>
<path d="M44.5 63C45.8807 63 47 64.1193 47 65.5C47 66.8807 45.8807 68 44.5 68C43.1193 68 42 66.8807 42 65.5C42 64.1193 43.1193 63 44.5 63Z" fill="white"/>
<path d="M44.5 84C45.8807 84 47 85.1193 47 86.5C47 87.8807 45.8807 89 44.5 89C43.1193 89 42 87.8807 42 86.5C42 85.1193 43.1193 84 44.5 84Z" fill="white"/>
<path d="M44.5 105C45.8807 105 47 106.119 47 107.5C47 108.881 45.8807 110 44.5 110C43.1193 110 42 108.881 42 107.5C42 106.119 43.1193 105 44.5 105Z" fill="white"/>
<path d="M44.5 126C45.8807 126 47 127.119 47 128.5C47 129.881 45.8807 131 44.5 131C43.1193 131 42 129.881 42 128.5C42 127.119 43.1193 126 44.5 126Z" fill="white"/>
<path d="M44.5 147C45.8807 147 47 148.119 47 149.5C47 150.881 45.8807 152 44.5 152C43.1193 152 42 150.881 42 149.5C42 148.119 43.1193 147 44.5 147Z" fill="white"/>
<path d="M23.5 -1.09278e-07C24.8807 -4.89256e-08 26 1.11929 26 2.5C26 3.88071 24.8807 5 23.5 5C22.1193 5 21 3.88071 21 2.5C21 1.11929 22.1193 -1.69631e-07 23.5 -1.09278e-07Z" fill="white"/>
<path d="M23.5 21C24.8807 21 26 22.1193 26 23.5C26 24.8807 24.8807 26 23.5 26C22.1193 26 21 24.8807 21 23.5C21 22.1193 22.1193 21 23.5 21Z" fill="white"/>
<path d="M23.5 42C24.8807 42 26 43.1193 26 44.5C26 45.8807 24.8807 47 23.5 47C22.1193 47 21 45.8807 21 44.5C21 43.1193 22.1193 42 23.5 42Z" fill="white"/>
<path d="M23.5 63C24.8807 63 26 64.1193 26 65.5C26 66.8807 24.8807 68 23.5 68C22.1193 68 21 66.8807 21 65.5C21 64.1193 22.1193 63 23.5 63Z" fill="white"/>
<path d="M23.5 84C24.8807 84 26 85.1193 26 86.5C26 87.8807 24.8807 89 23.5 89C22.1193 89 21 87.8807 21 86.5C21 85.1193 22.1193 84 23.5 84Z" fill="white"/>
<path d="M23.5 105C24.8807 105 26 106.119 26 107.5C26 108.881 24.8807 110 23.5 110C22.1193 110 21 108.881 21 107.5C21 106.119 22.1193 105 23.5 105Z" fill="white"/>
<path d="M23.5 126C24.8807 126 26 127.119 26 128.5C26 129.881 24.8807 131 23.5 131C22.1193 131 21 129.881 21 128.5C21 127.119 22.1193 126 23.5 126Z" fill="white"/>
<path d="M23.5 147C24.8807 147 26 148.119 26 149.5C26 150.881 24.8807 152 23.5 152C22.1193 152 21 150.881 21 149.5C21 148.119 22.1193 147 23.5 147Z" fill="white"/>
<path d="M2.5 -1.09278e-07C3.88071 -4.89256e-08 5 1.11929 5 2.5C5 3.88071 3.88071 5 2.5 5C1.11929 5 -1.69631e-07 3.88071 -1.09278e-07 2.5C-4.89256e-08 1.11929 1.11929 -1.69631e-07 2.5 -1.09278e-07Z" fill="white"/>
<path d="M2.5 21C3.88071 21 5 22.1193 5 23.5C5 24.8807 3.88071 26 2.5 26C1.11929 26 -1.69631e-07 24.8807 -1.09278e-07 23.5C-4.89256e-08 22.1193 1.11929 21 2.5 21Z" fill="white"/>
<path d="M2.5 42C3.88071 42 5 43.1193 5 44.5C5 45.8807 3.88071 47 2.5 47C1.11929 47 -1.69631e-07 45.8807 -1.09278e-07 44.5C-4.89256e-08 43.1193 1.11929 42 2.5 42Z" fill="white"/>
<path d="M2.5 63C3.88071 63 5 64.1193 5 65.5C5 66.8807 3.88071 68 2.5 68C1.11929 68 -1.69631e-07 66.8807 -1.09278e-07 65.5C-4.89256e-08 64.1193 1.11929 63 2.5 63Z" fill="white"/>
<path d="M2.5 84C3.88071 84 5 85.1193 5 86.5C5 87.8807 3.88071 89 2.5 89C1.11929 89 -1.69631e-07 87.8807 -1.09278e-07 86.5C-4.89256e-08 85.1193 1.11929 84 2.5 84Z" fill="white"/>
<path d="M2.5 105C3.88071 105 5 106.119 5 107.5C5 108.881 3.88071 110 2.5 110C1.11929 110 -1.69631e-07 108.881 -1.09278e-07 107.5C-4.89256e-08 106.119 1.11929 105 2.5 105Z" fill="white"/>
<path d="M2.5 126C3.88071 126 5 127.119 5 128.5C5 129.881 3.88071 131 2.5 131C1.11929 131 -1.69631e-07 129.881 -1.09278e-07 128.5C-4.89256e-08 127.119 1.11929 126 2.5 126Z" fill="white"/>
<path d="M2.5 147C3.88071 147 5 148.119 5 149.5C5 150.881 3.88071 152 2.5 152C1.11929 152 -1.69631e-07 150.881 -1.09278e-07 149.5C-4.89256e-08 148.119 1.11929 147 2.5 147Z" fill="white"/>
</g>
</svg>
